<svg data-v-423bf9ae="" xmlns="http://www.w3.org/2000/svg" viewBox="0 0 530 90" class="iconLeft"><!----><!----><!----><g data-v-423bf9ae="" id="456d660c-4379-4211-960f-7f5ed8cf5e21" fill="white" transform="matrix(5.714285850524902,0,0,5.714285850524902,108.39875030517578,-4.542858600616455)"><path d="M8.16 5.61C8.01 5.22 7.77 4.89 7.45 4.61C7.13 4.33 6.72 4.09 6.23 3.93C5.74 3.78 5.14 3.70 4.47 3.70L1.34 3.70L0.28 3.70L0.28 4.52C0.28 4.76 0.39 4.90 0.63 4.96C0.64 4.96 0.67 4.96 0.71 4.97C0.76 4.97 0.83 5.00 0.92 5.01C1.02 5.03 1.18 5.05 1.34 5.08L1.34 12.43C1.18 12.46 1.02 12.49 0.92 12.50C0.83 12.52 0.76 12.53 0.71 12.54C0.67 12.54 0.64 12.56 0.63 12.56C0.39 12.61 0.28 12.75 0.28 12.99L0.28 13.82L1.34 13.82L3.22 13.82L4.28 13.82L4.28 12.99C4.28 12.75 4.17 12.61 3.93 12.56C3.92 12.56 3.89 12.54 3.85 12.54C3.81 12.54 3.74 12.52 3.64 12.50C3.54 12.49 3.39 12.46 3.22 12.43L3.22 10.25L4.47 10.25C5.12 10.25 5.70 10.18 6.19 10.01C6.68 9.84 7.10 9.62 7.42 9.32C7.74 9.03 7.98 8.68 8.15 8.27C8.32 7.87 8.40 7.41 8.40 6.92C8.40 6.44 8.32 6.01 8.16 5.61ZM6.38 7.70C6.30 7.94 6.17 8.13 6.01 8.29C5.84 8.46 5.63 8.57 5.38 8.65C5.12 8.74 4.82 8.78 4.47 8.78L3.22 8.78L3.22 5.15L4.47 5.15C4.82 5.15 5.12 5.19 5.38 5.28C5.63 5.36 5.84 5.47 6.01 5.63C6.17 5.78 6.30 5.96 6.38 6.19C6.47 6.41 6.51 6.65 6.51 6.92C6.51 7.20 6.47 7.48 6.38 7.70ZM14.95 12.54C14.94 12.54 14.88 12.53 14.80 12.52C14.71 12.50 14.57 12.47 14.42 12.45L14.42 9.27C14.42 8.86 14.36 8.48 14.25 8.15C14.14 7.81 13.94 7.52 13.72 7.27C13.50 7.03 13.22 6.83 12.89 6.69C12.56 6.55 12.18 6.48 11.76 6.48C10.60 6.48 9.60 6.87 8.78 7.63L9.10 8.18C9.16 8.26 9.21 8.34 9.30 8.40C9.38 8.46 9.49 8.48 9.60 8.48C9.74 8.48 9.87 8.46 9.98 8.39C10.09 8.32 10.22 8.26 10.36 8.18C10.50 8.09 10.67 8.02 10.85 7.95C11.03 7.88 11.27 7.85 11.55 7.85C11.94 7.85 12.24 7.97 12.43 8.20C12.63 8.44 12.74 8.79 12.74 9.28L12.74 9.70C11.93 9.70 11.23 9.77 10.68 9.91C10.14 10.05 9.70 10.23 9.37 10.44C9.03 10.65 8.79 10.89 8.65 11.16C8.51 11.42 8.44 11.70 8.44 11.97C8.44 12.29 8.50 12.57 8.60 12.81C8.69 13.05 8.85 13.26 9.03 13.43C9.21 13.59 9.44 13.71 9.69 13.79C9.94 13.87 10.22 13.92 10.53 13.92C10.78 13.92 11.02 13.89 11.23 13.85C11.44 13.80 11.63 13.75 11.82 13.66C12.00 13.58 12.19 13.48 12.36 13.36C12.54 13.23 12.71 13.09 12.89 12.92L13.05 13.43C13.09 13.58 13.16 13.69 13.26 13.73C13.36 13.79 13.48 13.80 13.65 13.80L14.24 13.80L14.42 13.80L15.30 13.80L15.30 12.98C15.30 12.74 15.19 12.60 14.95 12.54ZM12.74 11.96C12.61 12.08 12.49 12.19 12.36 12.29C12.24 12.39 12.11 12.46 11.98 12.53C11.86 12.60 11.70 12.66 11.55 12.68C11.40 12.71 11.24 12.73 11.06 12.73C10.77 12.73 10.54 12.66 10.36 12.53C10.18 12.40 10.09 12.18 10.09 11.87C10.09 11.72 10.14 11.56 10.22 11.44C10.30 11.31 10.44 11.20 10.65 11.10C10.86 11.00 11.14 10.92 11.48 10.85C11.82 10.78 12.24 10.75 12.74 10.75ZM20.58 6.51C20.15 6.51 19.77 6.64 19.42 6.89C19.07 7.14 18.77 7.49 18.52 7.94L18.41 7.07C18.38 6.92 18.34 6.80 18.27 6.73C18.20 6.66 18.09 6.64 17.91 6.64L16.88 6.64L16.88 6.64L15.83 6.64L15.83 7.46C15.83 7.70 15.95 7.84 16.18 7.90C16.30 7.91 16.28 7.91 16.88 8.02L16.88 12.43C16.28 12.54 16.30 12.54 16.18 12.56C15.95 12.61 15.83 12.75 15.83 12.99L15.83 13.82L16.88 13.82L18.62 13.82L18.62 13.82L19.67 13.82L19.67 12.99C19.67 12.75 19.56 12.61 19.32 12.56C19.21 12.54 19.22 12.54 18.62 12.43L18.62 9.35C18.80 8.97 19.01 8.67 19.26 8.47C19.52 8.27 19.82 8.18 20.19 8.18C20.38 8.18 20.55 8.20 20.68 8.23C20.80 8.26 20.89 8.27 20.96 8.27C21.04 8.27 21.11 8.25 21.15 8.22C21.20 8.19 21.22 8.13 21.24 8.05L21.46 6.75C21.22 6.58 20.93 6.51 20.58 6.51ZM29.54 12.56C29.51 12.56 29.46 12.54 29.40 12.53C29.34 12.52 29.25 12.52 29.11 12.50C28.97 12.49 28.81 12.46 28.66 12.43L27.22 10.33C27.15 10.22 27.06 10.12 26.99 10.02C26.92 9.93 26.84 9.86 26.74 9.79C26.84 9.73 26.92 9.66 27.01 9.58C27.09 9.49 27.17 9.39 27.26 9.30L28.32 8.01C28.46 7.99 28.57 7.97 28.70 7.95C28.83 7.94 28.92 7.92 28.98 7.91C29.04 7.90 29.06 7.90 29.09 7.90C29.33 7.84 29.44 7.70 29.44 7.46L29.44 6.64L29.44 6.64L27.90 6.64C27.86 6.64 27.82 6.64 27.76 6.65L27.76 6.64L26.04 6.64L26.04 7.46C26.04 7.70 26.15 7.84 26.39 7.90C26.40 7.90 26.45 7.91 26.52 7.92L25.52 9.14C25.45 9.23 25.38 9.30 25.31 9.32C25.24 9.35 25.14 9.37 25.03 9.37L24.71 9.37L24.71 3.42L22.99 3.42L21.92 3.42L21.92 4.24C21.92 4.48 22.04 4.62 22.27 4.68C22.29 4.68 22.32 4.69 22.36 4.69C22.40 4.69 22.47 4.72 22.57 4.73C22.67 4.75 22.82 4.77 22.99 4.80L22.99 12.43C22.82 12.46 22.67 12.49 22.57 12.50C22.47 12.52 22.40 12.54 22.36 12.54C22.32 12.54 22.29 12.56 22.27 12.56C22.04 12.61 21.92 12.75 21.92 12.99L21.92 13.82L22.99 13.82L24.71 13.82L25.77 13.82L25.77 12.99C25.77 12.75 25.66 12.61 25.42 12.56C25.41 12.56 25.38 12.54 25.34 12.54C25.30 12.53 25.23 12.52 25.13 12.50C25.03 12.49 24.88 12.46 24.71 12.43L24.71 10.53L25.10 10.53C25.24 10.53 25.35 10.54 25.42 10.57C25.49 10.60 25.56 10.67 25.63 10.78L27.45 13.51C27.52 13.62 27.61 13.71 27.71 13.75C27.80 13.79 27.92 13.82 28.06 13.82L28.83 13.82L29.61 13.82L29.89 13.82L29.89 12.99C29.89 12.75 29.78 12.61 29.54 12.56ZM33.89 12.56C33.88 12.56 33.85 12.54 33.81 12.54C33.77 12.54 33.70 12.52 33.60 12.50C33.50 12.49 33.35 12.46 33.18 12.43L33.18 6.64L31.46 6.64L30.39 6.64L30.39 7.46C30.39 7.70 30.51 7.84 30.74 7.90C30.76 7.90 30.79 7.91 30.83 7.91C30.87 7.91 30.94 7.94 31.04 7.95C31.14 7.97 31.29 7.99 31.46 8.02L31.46 12.43C31.29 12.46 31.14 12.49 31.04 12.50C30.94 12.52 30.87 12.53 30.83 12.54C30.79 12.54 30.76 12.56 30.74 12.56C30.51 12.61 30.39 12.75 30.39 12.99L30.39 13.82L31.46 13.82L33.18 13.82L34.24 13.82L34.24 12.99C34.24 12.75 34.13 12.61 33.89 12.56ZM33.45 4.54C33.45 4.38 33.40 4.24 33.35 4.10C33.29 3.96 33.21 3.85 33.11 3.75C33.01 3.65 32.90 3.58 32.76 3.53C32.62 3.47 32.48 3.43 32.33 3.43C32.17 3.43 32.03 3.47 31.89 3.53C31.75 3.58 31.65 3.65 31.56 3.75C31.46 3.85 31.37 3.96 31.32 4.10C31.26 4.24 31.23 4.38 31.23 4.54C31.23 4.69 31.26 4.83 31.32 4.96C31.37 5.08 31.46 5.21 31.56 5.31C31.65 5.40 31.75 5.49 31.89 5.54C32.03 5.60 32.17 5.63 32.33 5.63C32.48 5.63 32.62 5.60 32.76 5.54C32.90 5.49 33.01 5.40 33.11 5.31C33.21 5.21 33.29 5.08 33.35 4.96C33.40 4.83 33.45 4.69 33.45 4.54ZM42.78 12.56C42.77 12.56 42.74 12.54 42.70 12.54C42.66 12.54 42.59 12.52 42.49 12.50C42.39 12.49 42.24 12.46 42.07 12.43L42.07 9.25C42.07 8.85 42.03 8.48 41.92 8.15C41.80 7.81 41.65 7.52 41.45 7.28C41.24 7.04 41.01 6.85 40.70 6.72C40.39 6.58 40.04 6.52 39.65 6.52C39.41 6.52 39.19 6.55 38.98 6.59C38.77 6.64 38.58 6.72 38.40 6.80C38.22 6.89 38.04 6.99 37.88 7.11C37.72 7.24 37.58 7.36 37.44 7.52L37.31 6.96C37.24 6.75 37.10 6.64 36.88 6.64L35.81 6.64L34.76 6.64L34.76 7.46C34.76 7.70 34.87 7.84 35.11 7.90C35.13 7.90 35.15 7.90 35.20 7.91C35.24 7.91 35.31 7.94 35.41 7.95C35.50 7.97 35.64 7.99 35.81 8.02L35.81 12.43C35.64 12.46 35.50 12.49 35.41 12.50C35.31 12.52 35.24 12.53 35.20 12.54C35.15 12.54 35.13 12.56 35.11 12.56C34.87 12.61 34.76 12.75 34.76 12.99L34.76 13.82L35.81 13.82L37.55 13.82L38.60 13.82L38.60 12.99C38.60 12.75 38.49 12.61 38.25 12.56C38.23 12.56 38.21 12.56 38.16 12.54C38.12 12.53 38.05 12.52 37.95 12.50C37.86 12.49 37.72 12.46 37.55 12.43L37.55 8.62C37.79 8.39 38.02 8.22 38.29 8.08C38.56 7.94 38.84 7.87 39.13 7.87C39.54 7.87 39.84 7.99 40.04 8.23C40.24 8.47 40.35 8.82 40.35 9.25L40.35 13.82L42.07 13.82L43.13 13.82L43.13 12.99C43.13 12.75 43.02 12.61 42.78 12.56ZM53.19 6.71C52.93 6.09 52.60 5.56 52.15 5.11C51.70 4.66 51.16 4.33 50.53 4.07C49.90 3.82 49.21 3.70 48.44 3.70L44.73 3.70L43.67 3.70L43.67 4.52C43.67 4.76 43.78 4.90 44.02 4.96C44.03 4.96 44.06 4.97 44.10 4.97C44.14 4.97 44.21 5.00 44.31 5.01C44.41 5.03 44.56 5.05 44.73 5.08L44.73 12.43C44.56 12.46 44.41 12.49 44.31 12.50C44.21 12.52 44.14 12.54 44.10 12.54C44.06 12.54 44.03 12.56 44.02 12.56C43.78 12.61 43.67 12.75 43.67 12.99L43.67 13.82L44.73 13.82L48.44 13.82C49.21 13.82 49.90 13.69 50.53 13.44C51.16 13.19 51.70 12.85 52.15 12.40C52.60 11.96 52.93 11.41 53.19 10.79C53.44 10.18 53.56 9.49 53.56 8.75C53.56 8.01 53.44 7.32 53.19 6.71ZM51.41 10.25C51.25 10.70 51.06 11.06 50.78 11.37C50.50 11.68 50.16 11.90 49.77 12.07C49.38 12.24 48.93 12.32 48.44 12.32L46.62 12.32L46.62 5.19L48.44 5.19C48.93 5.19 49.38 5.28 49.77 5.45C50.16 5.61 50.50 5.84 50.78 6.15C51.06 6.45 51.25 6.83 51.41 7.27C51.56 7.71 51.63 8.19 51.63 8.75C51.63 9.31 51.56 9.80 51.41 10.25ZM57.55 6.52C57.02 6.52 56.52 6.62 56.08 6.79C55.65 6.96 55.27 7.20 54.96 7.52C54.66 7.84 54.40 8.22 54.24 8.68C54.07 9.14 53.98 9.65 53.98 10.21C53.98 10.78 54.07 11.28 54.24 11.75C54.40 12.21 54.66 12.60 54.96 12.92C55.27 13.24 55.65 13.50 56.08 13.66C56.52 13.83 57.02 13.92 57.55 13.92C58.09 13.92 58.58 13.83 59.01 13.66C59.44 13.50 59.82 13.24 60.13 12.92C60.44 12.60 60.66 12.21 60.83 11.75C61.00 11.28 61.08 10.78 61.08 10.21C61.08 9.65 61.00 9.14 60.83 8.68C60.66 8.22 60.44 7.84 60.13 7.52C59.82 7.20 59.44 6.96 59.01 6.79C58.58 6.62 58.09 6.52 57.55 6.52ZM57.55 12.59C56.95 12.59 56.50 12.39 56.21 11.98C55.92 11.58 55.76 11.00 55.76 10.23C55.76 9.46 55.92 8.86 56.21 8.46C56.50 8.05 56.95 7.84 57.55 7.84C58.16 7.84 58.59 8.05 58.87 8.46C59.15 8.86 59.30 9.45 59.30 10.22C59.30 10.99 59.15 11.58 58.87 11.98C58.59 12.39 58.16 12.59 57.55 12.59ZM73.43 12.56C73.42 12.56 73.39 12.54 73.35 12.54C73.30 12.54 73.23 12.52 73.14 12.50C73.04 12.49 72.90 12.46 72.73 12.43L72.73 9.25C72.73 8.82 72.67 8.43 72.56 8.09C72.45 7.76 72.30 7.48 72.09 7.24C71.88 7.00 71.61 6.83 71.30 6.71C70.99 6.58 70.64 6.52 70.25 6.52C70.03 6.52 69.79 6.55 69.57 6.61C69.34 6.66 69.12 6.73 68.92 6.85C68.73 6.96 68.54 7.08 68.38 7.25C68.21 7.42 68.07 7.63 67.96 7.87C67.82 7.46 67.59 7.14 67.30 6.89C67.00 6.64 66.63 6.52 66.18 6.52C65.97 6.52 65.77 6.54 65.59 6.59C65.41 6.65 65.24 6.72 65.09 6.80C64.93 6.89 64.78 6.99 64.64 7.10C64.50 7.21 64.37 7.35 64.25 7.49L64.13 6.96C64.06 6.75 63.92 6.64 63.70 6.64L62.64 6.64L61.57 6.64L61.57 7.46C61.57 7.70 61.70 7.84 61.94 7.90C61.95 7.90 61.98 7.91 62.02 7.91C62.06 7.91 62.13 7.94 62.23 7.95C62.33 7.97 62.47 7.99 62.64 8.02L62.64 12.43C62.47 12.46 62.33 12.49 62.23 12.50C62.13 12.52 62.06 12.54 62.02 12.54C61.98 12.54 61.95 12.56 61.94 12.56C61.70 12.61 61.59 12.75 61.59 12.99L61.59 13.82L62.64 13.82L64.37 13.82L65.42 13.82L65.42 12.99C65.42 12.75 65.31 12.61 65.07 12.56C65.06 12.56 65.03 12.56 64.99 12.54C64.95 12.53 64.88 12.52 64.78 12.50C64.68 12.49 64.54 12.46 64.37 12.43L64.37 8.57C64.55 8.36 64.75 8.18 64.97 8.05C65.20 7.92 65.42 7.87 65.67 7.87C66.05 7.87 66.33 7.98 66.53 8.20C66.72 8.43 66.82 8.78 66.82 9.25L66.82 13.82L68.56 13.82L69.61 13.82L69.61 12.99C69.61 12.75 69.50 12.61 69.26 12.56C69.24 12.56 69.22 12.56 69.17 12.54C69.13 12.53 69.06 12.52 68.96 12.50C68.87 12.49 68.74 12.46 68.56 12.43L68.56 9.25C68.56 9.03 68.59 8.82 68.66 8.65C68.73 8.48 68.81 8.33 68.92 8.22C69.03 8.11 69.16 8.02 69.31 7.97C69.47 7.91 69.64 7.87 69.82 7.87C70.21 7.87 70.50 7.98 70.70 8.22C70.90 8.44 70.99 8.79 70.99 9.25L70.99 13.82L72.73 13.82L73.78 13.82L73.78 12.99C73.78 12.75 73.67 12.61 73.43 12.56Z"></path></g><!----><g data-v-423bf9ae="" id="812f2b02-bf4f-4aa8-a081-e765fcb40f37" transform="matrix(1.2393107414245605,0,0,1.2393107414245605,-18.601953506469727,-17.49393653869629)" stroke="none" fill="white"><path d="M51.363 14.6c-20.053 0-36.309 16.256-36.309 36.31 0 20.053 16.256 36.311 36.309 36.311 20.055 0 36.311-16.258 36.311-36.311 0-20.054-16.256-36.31-36.311-36.31zm8.728 32.803l-8.728 21.399-8.729-21.399c-.273-.725-1.038-2.8-1.038-4.373 0-5.385 4.381-9.764 9.766-9.764s9.766 4.38 9.766 9.765c.001 1.572-.8 3.801-1.037 4.372z"></path><circle cx="51.195" cy="42.035" r="3"></circle></g><!----></svg>